
<global>
amp_veltrack=0
ampeg_release=0.50
xfin_hicc1=24
xfout_hicc1=127
xfout_locc1=127
</global>

<group>
group_label=Group_0-45
lpc_hicc1=42
lpc_locc1=0

<region>
hikey=g#6
hivel=127
lokey=g6
loop_end=268998
loop_mode=loop_continuous
loop_start=76968
loop_xfade=22989
lovel=1
lpc=Bpg6Qr1aRMLu8QRCVuwmwaQR879hNd1BnIBswWQtT0Fs+bpAmm+Mv/gPwUCfWVhAhAPiQCKAH8E65N/AEayTQCG8GkH2O7LAJoguQNj+TcDHRmy/fGJvvgk/BMCqu60/
lpc_rms=-16.48
pitch_keycenter=G#6
sample=Flute_tremolo_PP_G#6.opus
</region>

<region>
hikey=g#5
hivel=127
lokey=g5
loop_end=271669
loop_mode=loop_continuous
loop_start=77732
loop_xfade=23217
lovel=1
lpc=YhuWQeqk68F9zZpBJP7CwCWKlT8Wa91ApIzTwCJMEEA9eVNAgRJxwLbVj0DJEk3AUSl/QAuvAr5GyJG/6ngvQOaYbL/OoSo/p0N0P88lgb7gJghAFDa/v9HVfUBribK/
lpc_rms=-30.46
pitch_keycenter=g#5
sample=Flute_tremolo_PP_G#5.opus
</region>

<region>
hikey=g#4
hivel=127
lokey=g4
loop_end=259228
loop_mode=loop_continuous
loop_start=74173
loop_xfade=22154
lovel=1
lpc=+Ia5QbnwXcKwqEpCLSLOwSr/mUBr8IVBuIW2wUzXEUHvLY1A60UHwXSy5UDeeIvAMzpXP7Wfq7/kvYJA95aEwLGUUUDXiT/AKcEvQKFEeT9ndjHAcpLlP2QER8B6yRlA
lpc_rms=-38.56
pitch_keycenter=g#4
sample=Flute_tremolo_PP_G#4.opus
</region>

<region>
hikey=f#6
hivel=127
lokey=f6
loop_end=266579
loop_mode=loop_continuous
loop_start=76276
loop_xfade=22782
lovel=1
lpc=WxYPQop3D8K+0IBBXXS1wOiNBcBmZa1BIwcRwYv2gD857fhAzcZkwNEeF0G5lU7AgUczQBVXyD8XxqtANsYiwS2Pm8Br5tFAh3BmQK88pkCGfpDAhEuRwPWZjj+OGFY/
lpc_rms=-20.04
pitch_keycenter=f#6
sample=Flute_tremolo_PP_F#6.opus
</region>

<region>
hikey=f#5
hivel=127
lokey=f5
loop_end=266575
loop_mode=loop_continuous
loop_start=76275
loop_xfade=22782
lovel=1
lpc=t69aQaPtxcH0mWFBn15SQMSqKcEy5RRBBbisv6yiK8DiQCBADlO+v9K+nj/5n1G/fAi0P5zStL/aUh1Am9S2v3RQEz/Dn3i9ftCaPukgVz6qp948sCuwvlxFmT+310o+
lpc_rms=-33.01
pitch_keycenter=f#5
sample=Flute_tremolo_PP_F#5.opus
</region>

<region>
hikey=f#4
hivel=127
lokey=f4
loop_end=261131
loop_mode=loop_continuous
loop_start=74717
loop_xfade=22317
lovel=1
lpc=7PLOQd3jS8JsyC1C+bngwTmMbEEbfjxAvx02weKBskBzJzTAXgXKPoEy1ECR5hnB1TfmQHm4rcBLQp4/9scFPwwarT99g9O/7m2/P6PkHT+3FJa/e62qPlklvL8I3ilA
lpc_rms=-33.44
pitch_keycenter=f#4
sample=Flute_tremolo_PP_F#4.opus
</region>

<region>
hikey=e6
hivel=127
lokey=d#6
loop_end=272820
loop_mode=loop_continuous
loop_start=78062
loop_xfade=23315
lovel=1
lpc=ZECtQZ7f2MEHiZRB90qpwNvgjcDtpXJBU4AlwUPV30CQmaU/7+FWwEAP+EBDuU7AHMBFQILwu74Se1VApMdDP7tboD4S0pPAdz07v+T8FkBmIc8/MgjBPx/cCsCtyuC9
lpc_rms=-29.30
pitch_keycenter=e6
sample=Flute_tremolo_PP_E6.opus
</region>

<region>
hikey=e5
hivel=127
lokey=d#5
loop_end=263978
loop_mode=loop_continuous
loop_start=75532
loop_xfade=22560
lovel=1
lpc=fCmIQUFA/sGXHbFBqBzIwKHKw8C0b41BXxVgwXsXAkB6x7dAXR3vwAPXqEAqpae/K3fRPsRyIT/BTmq/zuT+PnO7B77F9dC+itluQMGSJsB4Dig/VAkzPr7qOsCmMXRA
lpc_rms=-30.95
pitch_keycenter=e5
sample=Flute_tremolo_PP_E5.opus
</region>

<region>
hikey=e4
hivel=127
lokey=d#4
loop_end=250881
loop_mode=loop_continuous
loop_start=71784
loop_xfade=21441
lovel=1
lpc=6CsiQq7xm8JsUi9C4jXev6yhGsCdJ1zAAmwAQXRlYcCO2IvBF4LSQUPMWcFlap7AfWKFQWz5OcGzrsa/LEG2P7rLEUD+GYQ/L4cVwCNkgkBoA1nAkHgqP2qBf78o/fw/
lpc_rms=-37.15
pitch_keycenter=e4
sample=Flute_tremolo_PP_E4.opus
</region>

<region>
hikey=d6
hivel=127
lokey=c#6
loop_end=270526
loop_mode=loop_continuous
loop_start=77405
loop_xfade=23119
lovel=1
lpc=F20kQgDPOsKPd7BBWp/Mv7mZ0b9ThWZB8EQQwXLrFUENXgZAaG6wvzziJkFvYuzACKkvQVrStj6q2f0/gRJzQJNLQT936JFAlH2LQFPUmcBCWFfB6HU8QbgT3UB5JEnA
lpc_rms=-21.67
pitch_keycenter=d6
sample=Flute_tremolo_PP_D6.opus
</region>

<region>
hikey=d5
hivel=127
lokey=c#5
loop_end=267558
loop_mode=loop_continuous
loop_start=76556
loop_xfade=22866
lovel=1
lpc=3rjJQekePcKfd9FBznHdQB41osEiTXxB0pcWwAvbJ8C4uS4/0kpDv6LyvT/H/STA51OqQBn3ncBbLSZA3l/+PkNKJ8AF6wNApL6UP7Uxzb9AmT9A41utv1zPVMA3omdA
lpc_rms=-34.06
pitch_keycenter=d5
sample=Flute_tremolo_PP_D5.opus
</region>

<region>
hikey=d4
hivel=127
lokey=c#4
loop_end=245873
loop_mode=loop_continuous
loop_start=70351
loop_xfade=21013
lovel=1
lpc=1EDEQHuCQMGYZydBFMjzwDMJkEAnZf0+rqspwFgD1D8upeW/maZYP0+fyT//wBvAI0D5P9KWsb/LhGC+jephP8lnKD5dc1+/ULgnP/VtGj7KpMu+WrwKP6PzIL9+qr8+
lpc_rms=-50.74
pitch_keycenter=d4
sample=Flute_tremolo_PP_D4.opus
</region>

<region>
hikey=c6
hivel=127
lokey=b5
loop_end=268392
loop_mode=loop_continuous
loop_start=76795
loop_xfade=22937
lovel=1
lpc=9e6OQclnvsF6Z1BBPKlkQOwxGsHyDjtB16SIwLXMUj8BcXRAWmkEwHMgKUB5+c4+c42TPy7BWD9OX84/8ZTWPueStT+Prwe/i8N5QK7j2b9qyPE/1ls+Pt1RtsCK2JRA
lpc_rms=-28.80
pitch_keycenter=c6
sample=Flute_tremolo_PP_C6.opus
</region>

<region>
hikey=c5
hivel=127
lokey=b4
loop_end=268808
loop_mode=loop_continuous
loop_start=76914
loop_xfade=22973
lovel=1
lpc=1mOmQYv4McKpoQpCJRQEwd5pKcHb+45B3HAtwQoCWj2MlH9AW7BQwNr1gj8WeuO+UxVAQJjlfsD2G6hAAACXwCWy5D9SbUy/blSfPzjbiL/H4Zo/GbF/P3Khh8CaNlxA
lpc_rms=-37.35
pitch_keycenter=c5
sample=Flute_tremolo_PP_C5.opus
</region>

<region>
hivel=127
key=c4
loop_end=266812
loop_mode=loop_continuous
loop_start=76343
loop_xfade=22802
lovel=1
lpc=fx49Qdb+qcH8LI9BQ71LwaWxnkDU9xRAlTMBwCEtBsCpcVJAIho8wG7tUT9zY/0/FKaXwKR0q0DgoabANOpvQIhYvL/JCq2/rdIlQEp6Cr+Wdo2/EdDxP1tAUcAayDJA
lpc_rms=-41.85
sample=Flute_tremolo_PP_C4.opus
</region>

<region>
hikey=a#5
hivel=127
lokey=a5
loop_end=269490
loop_mode=loop_continuous
loop_start=77109
loop_xfade=23031
lovel=1
lpc=KadaQUm9xMF1bopBM+nnwIDouz/xv9NA6670wMGMAUCUIQNAoHH5v5S5JUDrcjTAPs+xP2hKDb7OS5M/Nxo9vxabSD+gNLa/IevdP35cAL/Po3M/8/Bqv8b0o76w7E2+
lpc_rms=-30.07
pitch_keycenter=a#5
sample=Flute_tremolo_PP_A#5.opus
</region>

<region>
hikey=a#4
hivel=127
lokey=a4
loop_end=264060
loop_mode=loop_continuous
loop_start=75555
loop_xfade=22567
lovel=1
lpc=TkpHQsNDxcKrY3dCk4GAwDPeScH+yLdA0kAQQee5JMHpYuq+elflP7ea4b/y5rg+Ot/mQH8+McHn1eFArnX+v8yGmb7aghdAEPLaPR67XD8WjATAyJ+Cviz3P7/vQ0tA
lpc_rms=-31.70
pitch_keycenter=a#4
sample=Flute_tremolo_PP_A#4.opus
</region>
</group>

<group>
group_label=Group_46-90
lpc_hicc1=84
lpc_locc1=43

<region>
hikey=g#6
hivel=127
lokey=g6
loop_end=271030
loop_mode=loop_continuous
loop_start=77550
loop_xfade=23162
lovel=1
lpc=37sqQvstLMJtFtVBYDTgvyCeLcFcGAdC0mxfwedC30BXNx1Bowl+v6a9HkFLPsI/ysbIQEM6FsFXawPBzHgkQf66tj/JaGI/G5EFP/ptnMDvaYq/ZgExvwRY/j8Py4bA
lpc_rms=-13.58
pitch_keycenter=G#6
sample=Flute_tremolo_MF_G#6.opus
</region>

<region>
hikey=g#5
hivel=127
lokey=g5
loop_end=264331
loop_mode=loop_continuous
loop_start=75633
loop_xfade=22590
lovel=1
lpc=36mBQVwtwsEltGVBDfxBQDQkMsFyfWdBUEa1wIF1S8AAse1AjD0owOTMGEDtD+2/kpGOQN+2Z8CZc84/fSaLQHfgfcCeTkxAS0nDPwwk979MN09A3yjJvx2X8z/Kjqo/
lpc_rms=-26.66
pitch_keycenter=g#5
sample=Flute_tremolo_MF_G#5.opus
</region>

<region>
hikey=g#4
hivel=127
lokey=g4
loop_end=259710
loop_mode=loop_continuous
loop_start=74310
loop_xfade=22195
lovel=1
lpc=PAZ7Qep2DcIOS9FBdGqHwHchsMCOk89ALstKwM2nIT/V41g/jSJ5wM23nEC+cXPA/Hl6QBg6dMBoEj0/dLSFP074yL17XcQ+fx49P5ZY37/CHMY/RH+evs+CAcC1rsI/
lpc_rms=-31.68
pitch_keycenter=g#4
sample=Flute_tremolo_MF_G#4.opus
</region>

<region>
hikey=f#6
hivel=127
lokey=f6
loop_end=266643
loop_mode=loop_continuous
loop_start=76294
loop_xfade=22788
lovel=1
lpc=USXBQdp568H6CJRBX9K4wFcEGsAoAnVByMAmwRx46UDVlSg+j9P6PxyJHkBIWQ6+ZDaoQLmQFsA1Nt9A6F8TwdiQV8BirixB0rQ4wBJvXEDSUku90binwH6GmUAxCJu/
lpc_rms=-18.34
pitch_keycenter=f#6
sample=Flute_tremolo_MF_F#6.opus
</region>

<region>
hikey=f#5
hivel=127
lokey=f5
loop_end=264036
loop_mode=loop_continuous
loop_start=75548
loop_xfade=22565
lovel=1
lpc=IJeiQUNfFsIaYc9BLoY9wJw3xcDzGyhB720jwY/rrkDyholAzAoEwaQl2EAlI2/AIiOIQE/q8L5Zy/i/5lwFQDiOfr/xjB5Aru+TP9PuYMCghERAoZq+PrCgK8AmIoVA
lpc_rms=-26.63
pitch_keycenter=f#5
sample=Flute_tremolo_MF_F#5.opus
</region>

<region>
hikey=f#4
hivel=127
lokey=f4
loop_end=272103
loop_mode=loop_continuous
loop_start=77856
loop_xfade=23254
lovel=1
lpc=0JygQd+/McK66BhCWIKnwdldl0BT7zpBt35VwTS5sEDsF74+kECVwIFgsUD/iYXAVTYTQF0b4L9p2j9AlfAFwNL+9T3gmL+/jwM6QIpohr/VpYY/njBBv8ZFoL9nCZg/
lpc_rms=-30.37
pitch_keycenter=f#4
sample=Flute_tremolo_MF_F#4.opus
</region>

<region>
hikey=e6
hivel=127
lokey=d#6
loop_end=267716
loop_mode=loop_continuous
loop_start=76601
loop_xfade=22879
lovel=1
lpc=/tYDQpm0KsKSEe1B0K1DwblaG7/XP51B85xKwVkeDEF+zso/4kwmvTrAeUDODLg/zN/OP5ZjFkAZkaY/lLZcQPxSDkDoACrBwlYUv6ks9kAzpYw/WU/vP9g6ScBtfby/
lpc_rms=-18.33
pitch_keycenter=e6
sample=Flute_tremolo_MF_E6.opus
</region>

<region>
hikey=e5
hivel=127
lokey=d#5
loop_end=268985
loop_mode=loop_continuous
loop_start=76965
loop_xfade=22988
lovel=1
lpc=mOKxQS0EN8J/zvVBZsAzPvdMPME351VBWjExwVmPqEB0VjRAZTbvwLSNAEEGrbPAfEVcQB5Zgr49CJi/wvdZP2/12T7WVPc+0ldGP6OFJsBy81dAlyuFPlJCssCvlqlA
lpc_rms=-25.20
pitch_keycenter=e5
sample=Flute_tremolo_MF_E5.opus
</region>

<region>
hikey=e4
hivel=127
lokey=d#4
loop_end=269349
loop_mode=loop_continuous
loop_start=77068
loop_xfade=23019
lovel=1
lpc=+Nb3QZcVlcLJVYNCKR3ZwTr1D78NtllBzFgbwX09cEB4xWfA020EQIY1yD8DGIjA4jqDQJo+WsC7r1NAxaN1v/1nHMCWJMc/1DcwQDYKcMDiGeg/mlASvtvNKr8RpR0/
lpc_rms=-30.56
pitch_keycenter=e4
sample=Flute_tremolo_MF_E4.opus
</region>

<region>
hikey=d6
hivel=127
lokey=c#6
loop_end=270490
loop_mode=loop_continuous
loop_start=77395
loop_xfade=23116
lovel=1
lpc=nJ0yQZLBYsF10vNAPOjrvmyk5785jKlAsM5IwFBv0D/sZRxAEkwhwIaGXkCbocy/0ykHQKTQ3D1sHVY+ylq1P4lOxL1vWYs/a8GpP6QnLsAL3SzAle9/QBBkoz/vyLG/
lpc_rms=-28.65
pitch_keycenter=d6
sample=Flute_tremolo_MF_D6.opus
</region>

<region>
hikey=d5
hivel=127
lokey=c#5
loop_end=270618
loop_mode=loop_continuous
loop_start=77432
loop_xfade=23127
lovel=1
lpc=EB/VQQYcasIo1yFCYkwTQA4pn8HeHpNBU24zweoIhkCbrS1A3M0PwWEWHUHKrK/ATas6QLOPhb8nXHq/hiA1PwGMFz8H7nW+pRfyP3UgCsBqAU1AEqPtv8c9hcAAypRA
lpc_rms=-23.92
pitch_keycenter=d5
sample=Flute_tremolo_MF_D5.opus
</region>

<region>
hikey=d4
hivel=127
lokey=c#4
loop_end=271700
loop_mode=loop_continuous
loop_start=77741
loop_xfade=23220
lovel=1
lpc=frowQfNnsMGaHXhBZtOMwA8CHcAqVKVAg05mwLMKFkDBQKO/9tslv5Fb5z9vrg3AmbnRPwi2H7+ZGSc/6tzJvnp2vb61fcY9mQ4OP+Jt2T4E7O2+2VhIvg4dsj4oSmG+
lpc_rms=-37.79
pitch_keycenter=d4
sample=Flute_tremolo_MF_D4.opus
</region>

<region>
hikey=c6
hivel=127
lokey=b5
loop_end=263102
loop_mode=loop_continuous
loop_start=75281
loop_xfade=22485
lovel=1
lpc=iGDEQTL5FsKkjtdB3YSwwJ6hMMGnUqlB+ZVDwXIuMj87Xg5BycfxwDvZx0Dl/STAHvmHQCxAB8Aj4hxAJeESQEw9BMCYvxdAAQp6P9PcTr4WSmlAZrw9wNbM8cCm9ulA
lpc_rms=-21.70
pitch_keycenter=c6
sample=Flute_tremolo_MF_C6.opus
</region>

<region>
hikey=c5
hivel=127
lokey=b4
loop_end=267877
loop_mode=loop_continuous
loop_start=76647
loop_xfade=22893
lovel=1
lpc=AGeCQcYyGsKeMvJB5IOnwBBk1MDG0jZBVRszwd+FSUDG5MRAT+YnwfQ67EDKbzbAuVJQQPq7778ZVSXAwEpAQPlKVb5ZxNO+TmWyP2J3c8BAi1tAYc9fvx8nHL92oSw/
lpc_rms=-27.63
pitch_keycenter=c5
sample=Flute_tremolo_MF_C5.opus
</region>

<region>
hivel=127
key=c4
loop_end=265924
loop_mode=loop_continuous
loop_start=76089
loop_xfade=22726
lovel=1
lpc=MoGXQXIeI8JdvQVCnrmCweLRoz/kOABBR+KhwJHg9z8+oYy/qdIIwGBDN0CeNBTAsuI2QFGD9L8b/dU8kn1UP/MWgL++7zu9zDANQCpUur/bCys/M/RYvj1SJL/0yoY+
lpc_rms=-35.69
sample=Flute_tremolo_MF_C4.opus
</region>

<region>
hikey=a#5
hivel=127
lokey=a5
loop_end=264999
loop_mode=loop_continuous
loop_start=75824
loop_xfade=22647
lovel=1
lpc=+pWuQU2uFsIr0t5BgF/TwCkyGMHhlLVB0lCPwXC2gj932B5BDPP4wIOWCUGmmbfAW/vqPohqYb5RqpBA+ZTpPqTNJ8D/c4w+NVObv0+VqUArjXU/MVaUwGePbUApmi/A
lpc_rms=-22.11
pitch_keycenter=a#5
sample=Flute_tremolo_MF_A#5.opus
</region>

<region>
hikey=a#4
hivel=127
lokey=a4
loop_end=259650
loop_mode=loop_continuous
loop_start=74293
loop_xfade=22190
lovel=1
lpc=dtYqQjtfwcK83oNCCttFQMG528Gsj55BwJXWwE+ZFMAFTShBaTyKwfgNc0GTjgrBeKK+QDTnpsAnNou/ma2iQGmQ3z8DMWS/d0XfPkdH/cApYuJAFzS7vuOm0cCRSrxA
lpc_rms=-21.07
pitch_keycenter=a#4
sample=Flute_tremolo_MF_A#4.opus
</region>
</group>

<group>
group_label=Group_91-127
lpc_hicc1=127
lpc_locc1=85

<region>
hikey=g#6
hivel=127
lokey=g6
loop_end=264460
loop_mode=loop_continuous
loop_start=75670
loop_xfade=22601
lovel=1
lpc=Roz4QV1SAMI9RbZBcK3swIXd2j8+/opBsTwowQI+JEHsYClAKTZLQM3Nw0Dsofy/8yEHQZa4IMG8Q3vAPlIHQfYTWr9/Hm0/1bnCPT/+eMAgSls/WSivv/neuT7kZ/a/
lpc_rms=-12.69
pitch_keycenter=G#6
sample=Flute_tremolo_FF_G#6.opus
</region>

<region>
hikey=g#5
hivel=127
lokey=g5
loop_end=268862
loop_mode=loop_continuous
loop_start=76929
loop_xfade=22977
lovel=1
lpc=/kCXQe0+DsLxFvhBgu5PwX6Uzr+AKYJB0aqTwVkjIUEuRow/HztPwIcxwEAlh6DAj+0TQHe9Qj+3RwI/rfMsP8vulT+V0MC/BjFSQMIuer+1DHM/PASOv4wqN0CqQGq9
lpc_rms=-22.49
pitch_keycenter=g#5
sample=Flute_tremolo_FF_G#5.opus
</region>

<region>
hikey=g#4
hivel=127
lokey=g4
loop_end=264688
loop_mode=loop_continuous
loop_start=75735
loop_xfade=22620
lovel=1
lpc=s+VZQX2288H5a69BL8VcwKicI8AHKZhA4OKhwDEoBEC2fwK94U0dwFCzQECBNdW/MgkjQDDD+r84lkC/t6oqP/la9z6oKo6+UA+GPttXR79G+v8/LGiBv7Pyo79beZQ/
lpc_rms=-27.66
pitch_keycenter=g#4
sample=Flute_tremolo_FF_G#4.opus
</region>

<region>
hikey=f#6
hivel=127
lokey=f6
loop_end=262340
loop_mode=loop_continuous
loop_start=75063
loop_xfade=22420
lovel=1
lpc=JdYJQh5wM8IdH/NBrHRZwCeqKMHS/ABCFGCOwRJztUDqMCtBoywbwWrBi0ED2NjAOJprQEzc8EDfx5nAL6ZkwFryqD8JzJlAEDeKPzdr4b6vbBvANUzmv7UxjT9wZ/e+
lpc_rms=-11.34
pitch_keycenter=f#6
sample=Flute_tremolo_FF_F#6.opus
</region>

<region>
hikey=f#5
hivel=127
lokey=f5
loop_end=269495
loop_mode=loop_continuous
loop_start=77110
loop_xfade=23031
lovel=1
lpc=EiaUQXpoFMJXcAFC26OEwYm5nkDOnhJBNYxkwUAeBkHvPne+vao1wNIZn0BtIl3A8MQMQDs73z4hRL2/wP/KP7NKBj/sehrA/kCkQIDhQsAxr/Y/DdCQv9cL1b4poiFA
lpc_rms=-23.34
pitch_keycenter=f#5
sample=Flute_tremolo_FF_F#5.opus
</region>

<region>
hikey=f#4
hivel=127
lokey=f4
loop_end=284811
loop_mode=loop_continuous
loop_start=81493
loop_xfade=24340
lovel=1
lpc=mCKZQWM+MMKuyQFC+ZPtwOjQV7+eSORANS4XwRIuSkDs+r8/wEB7wP1hrUCCo4vAVaw6QA6CRb/ZzR/AEfAwQBPD3b8SXno/NCDWP0vDNsDwGTxArxr5v/1HI7/QcX8/
lpc_rms=-26.53
pitch_keycenter=f#4
sample=Flute_tremolo_FF_F#4.opus
</region>

<region>
hikey=e6
hivel=127
lokey=d#6
loop_end=242395
loop_mode=loop_continuous
loop_start=69356
loop_xfade=20715
lovel=1
lpc=eUA2Qt+Fd8JhyPdBTv8pQWcCwcGXI9lBa1AMwWO6VUAiDvlAyEAJwcsJOkHkHJbAswPtQFgGEcAR/x1AyyScQMTVVL9/AmjBCZ0DwKrKt0GDnjbB4nxLwHKjzkAvSLLA
lpc_rms=-9.64
pitch_keycenter=e6
sample=Flute_tremolo_FF_E6.opus
</region>

<region>
hikey=e5
hivel=127
lokey=d#5
loop_end=272187
loop_mode=loop_continuous
loop_start=77881
loop_xfade=23261
lovel=1
lpc=FvZhQXul48E2n6pBwz0Ewcoauj+B4bFAlCjYwOaECkDvo4pAyxnYwAe6i0AIRPa/msFAP+tQ3z9WYDLAZR7BP6Uisz9ptRHAB+FUQH8sQsD3JbM/MKwVv0xIer7FgrQ/
lpc_rms=-26.84
pitch_keycenter=e5
sample=Flute_tremolo_FF_E5.opus
</region>

<region>
hikey=e4
hivel=127
lokey=d#4
loop_end=271536
loop_mode=loop_continuous
loop_start=77694
loop_xfade=23206
lovel=1
lpc=oEB4QTX8CsLg881B1SDmwOjeqL+cO+5AeHfUwL9aMED4sSg9KSamwIT6pUA0aAvAboYXQCDFcb9wfq2/wLtmP47Hmj3XXKS+s3xuPxGUhb/nC+E/YuX1vwgOWT4vAuw+
lpc_rms=-28.55
pitch_keycenter=e4
sample=Flute_tremolo_FF_E4.opus
</region>

<region>
hikey=d6
hivel=127
lokey=c#6
loop_end=273005
loop_mode=loop_continuous
loop_start=78115
loop_xfade=23331
lovel=1
lpc=TaE6Qd+nd8E4Y+hAVRsFQG4dSsDRmaJA0CpDwJ9fIUA70vY/5t4nwGXfH0B5HRu++z0TQDMrbr/5wCc/pLahP19V3D6HkUI/RDU5vSlu/r9D80G/3j8/QLEEKj85f7e/
lpc_rms=-24.98
pitch_keycenter=d6
sample=Flute_tremolo_FF_D6.opus
</region>

<region>
hikey=d5
hivel=127
lokey=c#5
loop_end=274470
loop_mode=loop_continuous
loop_start=78534
loop_xfade=23456
lovel=1
lpc=VvN2QbmbBMIw1c9B6gAXwXef5r41KBVBbvc7wUNyw0CICuI/ExCywEhezEAiZbvANEHBPzXQHED1M07Ao89bQDpi6b5oXx3AxqpqQFMuSsDox8k/dI5DP8GkOcDGtxdA
lpc_rms=-23.26
pitch_keycenter=d5
sample=Flute_tremolo_FF_D5.opus
</region>

<region>
hikey=d4
hivel=127
lokey=c#4
loop_end=273266
loop_mode=loop_continuous
loop_start=78189
loop_xfade=23354
lovel=1
lpc=m1JsQUodAsKxgN9BjYF1wV/wtECCLr5A0LkKwYLYR0ApFFw/8xNIwDOVo0AiRnLAv8N0Pyp4F7/WNjw/r6n/PrRDDL95NKO/jscZQMVhKr917Pk+n+hrvyxpkj0j5uk+
lpc_rms=-29.88
pitch_keycenter=d4
sample=Flute_tremolo_FF_D4.opus
</region>

<region>
hikey=c6
hivel=127
lokey=b5
loop_end=268875
loop_mode=loop_continuous
loop_start=76933
loop_xfade=22978
lovel=1
lpc=9lqOQbrn9MFJea1Bh6EiwGnQAcF7rTRBv3vWwNHEVEBGkOM/Rkk7wHUgikDnMl3AgbRwQGiYyb6Itl0/EfYKv4MOUT+ZVbY/bY9WPnzYxD5px4k/yU6fwNbDBECNaNc/
lpc_rms=-18.78
pitch_keycenter=c6
sample=Flute_tremolo_FF_C6.opus
</region>

<region>
hikey=c5
hivel=127
lokey=b4
loop_end=273435
loop_mode=loop_continuous
loop_start=78238
loop_xfade=23368
lovel=1
lpc=aWdmQVXuBcL3RNlBQcLWwLj7oMC3Zh1BRh37wGxaDkC2pEFAF9v5wPXZzkA5ItS/FpigP+Ylhj/QkF/AhwYmvSBo0z+6DFO/mu/gP2+0Qr87fEE/Q8LnPjCAesAz4DRA
lpc_rms=-23.80
pitch_keycenter=c5
sample=Flute_tremolo_FF_C5.opus
</region>

<region>
hivel=127
key=c4
loop_end=265963
loop_mode=loop_continuous
loop_start=76100
loop_xfade=22729
lovel=1
lpc=dVEIQZv2jsEbe2pBMMzywEjn0z9cp7NA0XbPwA8y2j8x5KQ/0oApwG2gUkAdLua/HgOFvqc5dT/MCcW+0t+BPKhT1r3IOta+QgOeP30CBL+hR5c+Q9ATv7JHmL1Fiv4+
lpc_rms=-28.68
sample=Flute_tremolo_FF_C4.opus
</region>

<region>
hikey=a#5
hivel=127
lokey=a5
loop_end=268974
loop_mode=loop_continuous
loop_start=76961
loop_xfade=22987
lovel=1
lpc=wXiXQcvVFMLnrgRCZ7FpwXu1t79QWjJBOhckwf5So0DMD3k+t/wjwP1wYkCXEQfA6yQ7PKHgqD9tVjg/HV3Dv1qy3z/MtKa/V2kPQKRQw78jEMU+/J1gvYyWuT+biijA
lpc_rms=-20.65
pitch_keycenter=a#5
sample=Flute_tremolo_FF_A#5.opus
</region>

<region>
hikey=a#4
hivel=127
lokey=a4
loop_end=269457
loop_mode=loop_continuous
loop_start=77099
loop_xfade=23028
lovel=1
lpc=fNufQaLMOsIdxwxCZStJwBBqHsHRvRdB85MEwccllkBOYFtAgYgewcI6EEHhILnA7QbDQBpDgcBgivG/xnIPQDYvpD940EK9x+a8v5yOSr/qKkFAQkgUwCnsnz4IrBM/
lpc_rms=-20.98
pitch_keycenter=a#4
sample=Flute_tremolo_FF_A#4.opus
</region>
</group>